<?xml version="1.0" encoding="UTF-8" standalone="no"?>
<!-- Generator: Adobe Illustrator 19.0.0, SVG Export Plug-In . SVG Version: 6.00 Build 0)  -->

<svg
   xmlns:dc="http://purl.org/dc/elements/1.1/"
   xmlns:cc="http://creativecommons.org/ns#"
   xmlns:rdf="http://www.w3.org/1999/02/22-rdf-syntax-ns#"
   xmlns:svg="http://www.w3.org/2000/svg"
   xmlns="http://www.w3.org/2000/svg"
   xmlns:sodipodi="http://sodipodi.sourceforge.net/DTD/sodipodi-0.dtd"
   xmlns:inkscape="http://www.inkscape.org/namespaces/inkscape"
   version="1.1"
   id="Layer_1"
   x="0px"
   y="0px"
   viewBox="0 0 32 32"
   xml:space="preserve"
   inkscape:version="0.91 r13725"
   sodipodi:docname="colectaBotanicaIcon.svg"
   width="32"
   height="32"><metadata
     id="metadata69"><rdf:RDF><cc:Work
         rdf:about=""><dc:format>image/svg+xml</dc:format><dc:type
           rdf:resource="http://purl.org/dc/dcmitype/StillImage" /><dc:title></dc:title></cc:Work></rdf:RDF></metadata><defs
     id="defs67" /><sodipodi:namedview
     pagecolor="#ffffff"
     bordercolor="#666666"
     borderopacity="1"
     objecttolerance="10"
     gridtolerance="10"
     guidetolerance="10"
     inkscape:pageopacity="0"
     inkscape:pageshadow="2"
     inkscape:window-width="1366"
     inkscape:window-height="705"
     id="namedview65"
     showgrid="false"
     inkscape:zoom="3.6875"
     inkscape:cx="95.224137"
     inkscape:cy="23.656849"
     inkscape:window-x="-8"
     inkscape:window-y="-8"
     inkscape:window-maximized="1"
     inkscape:current-layer="Layer_1" /><g
     id="g4197"
     transform="matrix(0.06173981,0,0,0.06144068,0.43199165,-1.3661916e-7)"><g
       id="g3"
       transform="translate(0,1)"><g
         id="g5"><path
           id="path7"
           d="m 291.373,299.138 c -5.297,0 -8.828,-3.531 -8.828,-8.828 l 0,-211.862 c 0,-5.297 3.531,-8.828 8.828,-8.828 5.297,0 8.828,3.531 8.828,8.828 l 0,211.862 c 0,5.297 -3.531,8.828 -8.828,8.828 z"
           style="fill:#88c057"
           inkscape:connector-curvature="0" /><path
           id="path9"
           d="m 291.373,87.276 c -5.297,0 -8.828,-3.531 -8.828,-8.828 C 282.546,34.31 317.856,-1 361.994,-1 c 5.297,0 8.828,3.531 8.828,8.828 0,5.297 -3.531,8.828 -8.828,8.828 -34.428,0 -61.793,27.366 -61.793,61.793 0,5.296 -3.531,8.827 -8.828,8.827 z"
           style="fill:#88c057"
           inkscape:connector-curvature="0" /></g><g
         id="g11"><path
           id="path13"
           d="m 468.808,25.483 -45.021,7.062 c -46.786,7.062 -83.862,44.138 -90.924,90.924 l -6.179,44.138 45.021,-7.062 c 46.786,-7.062 83.862,-44.138 90.924,-90.924 l 6.179,-44.138 z"
           style="fill:#a2dd64"
           inkscape:connector-curvature="0" /><path
           id="path15"
           d="m 264.891,229.4 -7.062,-45.021 c -7.062,-46.786 -44.138,-83.862 -90.924,-90.924 l -44.138,-7.062 7.062,45.021 c 7.062,46.786 44.138,83.862 90.924,90.924 l 44.138,7.062 z"
           style="fill:#a2dd64"
           inkscape:connector-curvature="0" /></g><g
         id="g17"><path
           id="path19"
           d="m 291.373,96.103 c -5.297,0 -8.828,-3.531 -8.828,-8.828 0,-24.717 -19.421,-44.138 -44.138,-44.138 -5.297,0 -8.828,-3.531 -8.828,-8.828 0,-5.297 3.531,-8.828 8.828,-8.828 34.428,0 61.793,27.366 61.793,61.793 0.001,5.298 -3.53,8.829 -8.827,8.829 z"
           style="fill:#88c057"
           inkscape:connector-curvature="0" /><path
           id="path21"
           d="m 291.373,210.862 c -5.297,0 -8.828,-3.531 -8.828,-8.828 0,-18.538 11.476,-35.31 29.131,-41.49 8.828,-3.531 17.655,-8.828 26.483,-18.538 l 60.91,-60.91 c 3.531,-3.531 8.828,-3.531 12.359,0 3.531,3.531 3.531,8.828 0,12.359 l -60.91,60.91 c -10.593,10.593 -22.069,18.538 -33.545,22.069 -10.593,3.531 -17.655,14.124 -17.655,24.717 0.883,6.18 -2.648,9.711 -7.945,9.711 z"
           style="fill:#88c057"
           inkscape:connector-curvature="0" /><path
           id="path23"
           d="m 291.373,263.828 c -5.297,0 -8.828,-3.531 -8.828,-8.828 0,-6.179 -3.531,-12.359 -8.828,-15.007 -11.476,-7.062 -25.6,-15.007 -37.076,-26.483 l -48.552,-48.552 c -3.531,-3.531 -3.531,-8.828 0,-12.359 3.531,-3.531 8.828,-3.531 12.359,0 L 249,201.151 c 9.71,9.71 22.069,17.655 33.545,23.834 10.593,6.179 17.655,17.655 17.655,30.897 0.001,4.415 -3.53,7.946 -8.827,7.946 z"
           style="fill:#88c057"
           inkscape:connector-curvature="0" /></g><path
         id="path25"
         d="m 145.718,301.786 c 16.772,12.359 37.959,18.538 59.145,18.538 l 36.193,0 c 23.834,0 45.903,11.476 59.145,30.897 19.421,30.014 -44.138,26.483 -60.91,27.366 30.897,0.883 116.524,9.71 138.593,-1.766 l 80.331,-49.434 c 0.883,0 0.883,-0.883 1.766,-0.883 l -11.476,-33.545 c 0,0 -21.186,-15.89 -28.248,-18.538 -7.062,-2.648 -62.676,-2.648 -74.152,0 -11.476,2.648 -36.193,-33.545 -46.786,-28.248 -10.593,6.179 -78.566,17.655 -83.862,18.538 -3.531,1.766 -101.517,-27.365 -101.517,-27.365 L 92.753,280.6 c 18.538,3.531 38.841,10.593 52.965,21.186"
         style="fill:#994530"
         inkscape:connector-curvature="0" /><path
         id="path27"
         d="m 505.884,345.041 c 7.062,-5.297 7.945,-15.89 2.648,-22.952 -11.476,-15.007 -20.303,-19.421 -58.262,0.883 l -76.8,46.786 c -23.834,12.359 -84.745,8.828 -111.228,8.828 0,0 62.676,4.414 37.959,-32.662 -12.359,-18.538 -33.545,-29.131 -56.497,-29.131 l -34.428,0 c -20.303,0 -39.724,-6.179 -55.614,-17.655 C 115.703,270.007 44.2,272.655 44.2,272.655 l 0,211.862 123.586,0 c 17.655,0 79.448,-1.766 97.103,-4.414 l 70.621,-17.655 c 3.531,0 7.945,-0.883 11.476,-0.883 l 0,0 c 9.71,-0.883 17.655,-6.179 24.717,-12.359 L 505.884,345.041 Z"
         style="fill:#fdc794"
         inkscape:connector-curvature="0" /><path
         id="path29"
         d="m 271.07,387.414 -85.628,0 c -5.297,0 -8.828,-3.531 -8.828,-8.828 0,-5.297 3.531,-8.828 8.828,-8.828 l 85.628,0 c 5.297,0 8.828,3.531 8.828,8.828 0,5.297 -3.532,8.828 -8.828,8.828 z"
         style="fill:#f9a671"
         inkscape:connector-curvature="0" /><polygon
         id="polygon31"
         points="44.201,511 44.201,246.172 0.063,246.172 0.063,511 "
         style="fill:#2872c9" /><path
         id="path33"
         d="m 150.132,413.897 c -5.297,0 -8.828,-3.531 -8.828,-8.828 0,-22.069 16.772,-35.31 44.138,-35.31 5.297,0 8.828,3.531 8.828,8.828 0,5.297 -3.531,8.828 -8.828,8.828 -26.483,0 -26.483,13.241 -26.483,17.655 0.001,5.296 -3.53,8.827 -8.827,8.827 z"
         style="fill:#f9a671"
         inkscape:connector-curvature="0" /></g></g><g
     id="g35"
     transform="translate(0,-480)" /><g
     id="g37"
     transform="translate(0,-480)" /><g
     id="g39"
     transform="translate(0,-480)" /><g
     id="g41"
     transform="translate(0,-480)" /><g
     id="g43"
     transform="translate(0,-480)" /><g
     id="g45"
     transform="translate(0,-480)" /><g
     id="g47"
     transform="translate(0,-480)" /><g
     id="g49"
     transform="translate(0,-480)" /><g
     id="g51"
     transform="translate(0,-480)" /><g
     id="g53"
     transform="translate(0,-480)" /><g
     id="g55"
     transform="translate(0,-480)" /><g
     id="g57"
     transform="translate(0,-480)" /><g
     id="g59"
     transform="translate(0,-480)" /><g
     id="g61"
     transform="translate(0,-480)" /><g
     id="g63"
     transform="translate(0,-480)" /></svg>